# xmcd CD database file
#
# Track frame offsets:
#	150
#	18334
#	34919
#	55552
#	73328
#	101515
#	128300
#	155727
#	178109
#	204815
#
# Disc length: 2931 seconds
#
# Revision: 0
# Processed by: cddbd v1.5.1PL2 Copyright (c) Steve Scherf et al.
# Submitted via: CDex 1.51
#
DISCID=7d0b710a
DTITLE=Big Mike Griffin  - Harley In The Rain
DYEAR=1997
DGENRE=Blues
TTITLE0=Harley In The Rain
TTITLE1=Self Defense
TTITLE2=Old Maid
TTITLE3=Harley Blues
TTITLE4=You'll Know
TTITLE5=Ain't Superstitious
TTITLE6=Get Outta My Life
TTITLE7=Shovel Head
TTITLE8=Willin'
TTITLE9=Figure Of Speech
EXTD=YEAR: 1997
EXTT0=
EXTT1=
EXTT2=
EXTT3=
EXTT4=
EXTT5=
EXTT6=
EXTT7=
EXTT8=
EXTT9=
PLAYORDER=
